<svg width="659" height="473" viewBox="0 0 659 473" fill="none" xmlns="http://www.w3.org/2000/svg">
<g clip-path="url(#clip0_720_2)">
<path d="M483.498 0.273438H0.206146V309.555H483.498V0.273438Z" fill="#E6E6E6"/>
<path d="M469.678 39.0649H14.0259V291.258H469.678V39.0649Z" fill="white"/>
<path d="M483.292 0H0V20.5159H483.292V0Z" fill="#4E9F3D"/>
<path d="M15.2583 14.2922C17.3601 14.2922 19.064 12.5896 19.064 10.4893C19.064 8.3891 17.3601 6.68652 15.2583 6.68652C13.1564 6.68652 11.4525 8.3891 11.4525 10.4893C11.4525 12.5896 13.1564 14.2922 15.2583 14.2922Z" fill="white"/>
<path d="M29.7025 14.2922C31.8044 14.2922 33.5083 12.5896 33.5083 10.4893C33.5083 8.3891 31.8044 6.68652 29.7025 6.68652C27.6006 6.68652 25.8967 8.3891 25.8967 10.4893C25.8967 12.5896 27.6006 14.2922 29.7025 14.2922Z" fill="white"/>
<path d="M44.1467 14.2922C46.2486 14.2922 47.9525 12.5896 47.9525 10.4893C47.9525 8.3891 46.2486 6.68652 44.1467 6.68652C42.0448 6.68652 40.3409 8.3891 40.3409 10.4893C40.3409 12.5896 42.0448 14.2922 44.1467 14.2922Z" fill="white"/>
<path d="M159.207 59.8083H70.0884V156.42H159.207V59.8083Z" fill="#E6E6E6"/>
<path d="M286.411 59.8083H197.292V156.42H286.411V59.8083Z" fill="#E6E6E6"/>
<path d="M413.613 59.8083H324.495V156.42H413.613V59.8083Z" fill="#E6E6E6"/>
<path d="M159.207 173.906H70.0884V270.518H159.207V173.906Z" fill="#E6E6E6"/>
<path d="M286.411 173.906H197.292V270.518H286.411V173.906Z" fill="#E6E6E6"/>
<path d="M413.613 173.906H324.495V270.518H413.613V173.906Z" fill="#E6E6E6"/>
<path d="M218.832 198.736L235.115 192.303L237.008 224.466C237.008 224.466 240.416 234.304 239.28 238.088C239.28 238.088 240.038 244.52 238.144 244.899C236.251 245.277 230.948 246.034 230.573 245.655C230.198 245.276 230.194 244.141 230.194 244.141C230.194 244.141 226.407 246.79 226.029 249.817C226.029 249.817 210.124 254.736 209.746 250.195C209.367 245.655 217.698 241.87 217.698 241.87L224.135 232.033L218.832 198.736Z" fill="white"/>
<path d="M253.293 198.736L269.574 192.303L271.467 224.466C271.467 224.466 274.875 234.304 273.739 238.088C273.739 238.088 274.496 244.52 272.603 244.899C270.709 245.277 265.407 246.034 265.032 245.655C264.657 245.276 264.653 244.141 264.653 244.141C264.653 244.141 260.866 246.79 260.488 249.817C260.488 249.817 244.583 254.736 244.205 250.195C243.826 245.655 252.156 241.87 252.156 241.87L258.594 232.033L253.293 198.736Z" fill="white"/>
<path d="M254.884 74.5359C254.884 74.5359 251.417 84.2164 255.434 88.5817L252.085 100.082C252.085 100.082 263.984 135.752 260.584 140.734C260.584 140.734 247.892 147.076 222.504 138.469L232.817 98.4958L231.344 81.6232L233.383 73.6962L237.916 73.2468C237.916 73.2468 235.197 83.4381 240.183 85.0238C245.169 86.6095 250.034 73.5015 250.034 73.5015L254.884 74.5359Z" fill="#1E5128"/>
<path d="M94.7663 137.025L99.1418 138.814L120.024 111.389L126.587 143.583L130.963 142.788C133.769 115.033 136.06 86.7232 133.25 73.3335L117.041 72.6377L109.683 96.0905L106.103 111.989L94.7663 137.025Z" fill="white"/>
<path d="M360.321 73.1143C360.321 73.1143 354.349 81.409 354.641 84.7564C354.932 88.1038 358.719 142.677 358.719 142.677L367.603 143.113L364.979 103.821L367.164 93.1972L372.553 142.677L383.476 142.968L373.718 78.7904L371.825 73.115L360.321 73.1143Z" fill="white"/>
<path d="M394.069 206.745C392.484 204.844 389.758 203.817 387.142 203.261C387.217 203.023 379.182 201.364 379.046 201.706L376.017 199.295L366.709 204.124L361.479 200.566L359.049 201.427C359.148 200.999 351.507 202.322 351.507 202.322C350.048 202.374 348.184 202.465 346.097 202.626C338.789 203.187 338.226 222.1 338.226 222.1C341.588 220.726 345.173 219.976 348.805 219.887L350.78 242.508C360.94 241.637 371.595 242.65 382.639 245.129L387.818 227.347L399.878 222.661C399.878 222.661 397.818 211.239 394.069 206.745Z" fill="#1E5128"/>
<path d="M135.26 195.974C133.954 194.407 131.709 193.56 129.552 193.102C129.616 192.906 122.994 191.54 122.88 191.822L120.384 189.835L112.716 193.814L108.407 190.883L106.405 191.593C106.487 191.24 100.191 192.329 100.191 192.329C98.9919 192.373 97.4522 192.448 95.7333 192.58C89.7117 193.043 89.2484 208.625 89.2484 208.625C92.019 207.493 94.9731 206.875 97.9656 206.801L99.593 252.428C107.964 251.71 116.743 252.545 125.841 254.588L130.107 212.949L140.045 209.088C140.045 209.088 138.348 199.677 135.26 195.974Z" fill="white"/>
<path d="M561.794 208.118H604.522V185.273C604.522 179.611 602.271 174.182 598.265 170.178C594.258 166.175 588.824 163.926 583.158 163.926C577.492 163.926 572.058 166.175 568.052 170.178C564.045 174.182 561.794 179.611 561.794 185.273V208.118Z" fill="#2F2E41"/>
<path d="M542.721 462.297H533.531L529.159 426.874H542.722L542.721 462.297Z" fill="#FFB6B6"/>
<path d="M545.065 459.298H526.965C523.907 459.299 520.973 460.513 518.81 462.674C516.648 464.835 515.432 467.766 515.432 470.822V471.197H545.065V459.298Z" fill="#2F2E41"/>
<path d="M652.579 450.042L644.576 454.556L623.341 425.86L635.153 419.198L652.579 450.042Z" fill="#FFB6B6"/>
<path d="M653.145 446.28L637.384 455.168C634.721 456.67 632.763 459.169 631.943 462.114C631.123 465.058 631.507 468.208 633.011 470.869L633.195 471.195L659 456.639L653.145 446.28Z" fill="#2F2E41"/>
<path d="M593.844 303L594.553 306.543C594.553 306.543 596.681 308.669 595.617 309.732C594.553 310.794 594.908 315.755 594.908 315.755C595.503 324.8 607.331 375.63 609.446 385.556C609.446 385.556 625.758 396.186 638.523 417.091C651.288 437.995 651.641 443.31 651.641 443.31L637.46 449.335L602.003 406.462C602.003 406.462 592.075 400.438 588.529 395.124C584.982 389.809 562.994 334.888 562.994 334.888L550.58 392.289C550.58 392.289 551.289 413.193 548.098 426.658C546.136 435.155 544.949 443.812 544.553 452.523L527.887 450.752C527.887 450.752 528.95 400.438 530.723 395.123C530.723 395.123 523.277 333.826 538.17 309.377L550.173 277.403L561.928 272.882L593.844 303Z" fill="#2F2E41"/>
<path d="M583.379 169.51C561.005 169.892 561.009 203.147 583.379 203.525C605.751 203.143 605.748 169.889 583.379 169.51Z" fill="#FFB8B8"/>
<path d="M566.159 185.636H569.962L570.997 183.048L570.479 185.636H591.277L590.603 180.222L595.658 185.636H600.701V182.702C600.702 180.436 600.257 178.192 599.391 176.098C598.524 174.004 597.254 172.1 595.651 170.497C594.049 168.893 592.146 167.621 590.051 166.752C587.957 165.884 585.711 165.436 583.443 165.434C581.176 165.432 578.93 165.877 576.834 166.743C574.738 167.609 572.833 168.878 571.228 170.48C569.624 172.081 568.35 173.982 567.481 176.075C566.612 178.168 566.163 180.412 566.162 182.678V182.702L566.159 185.636Z" fill="#2F2E41"/>
<path d="M560.307 213.456L602.585 213.798L593.653 304.368C593.653 304.368 544.209 301.761 544.179 286.681L548.81 273.28L560.307 213.456Z" fill="#1E5128"/>
<path d="M604.402 313.124C603.752 312.329 603.285 311.401 603.033 310.405C602.781 309.41 602.75 308.371 602.943 307.363C603.136 306.354 603.548 305.401 604.15 304.568C604.752 303.736 605.529 303.046 606.426 302.546L604.589 286.602L614.014 283.122L616.292 305.676C617.027 307.238 617.165 309.015 616.678 310.672C616.191 312.328 615.114 313.749 613.651 314.666C612.187 315.583 610.438 315.932 608.734 315.648C607.03 315.364 605.489 314.466 604.402 313.124Z" fill="#FFB6B6"/>
<path d="M597.026 221.601L602.589 213.831C602.589 213.831 606.396 212.987 610.894 218.23C615.392 223.473 618.015 289.013 618.015 289.013L601.524 292.758L591.779 246.319L597.026 221.601Z" fill="#1E5128"/>
<path d="M503.838 292.675L505.065 350.902L542.789 370.822L611.489 358.564L613.176 298.038L569.625 282.714L503.838 292.675Z" fill="white"/>
<path d="M542.691 371.451L504.47 351.269L503.225 292.158L569.683 282.097L569.825 282.146L613.791 297.615L612.078 359.07L542.691 371.451ZM505.66 350.535L542.887 370.193L610.901 358.057L612.562 298.459L569.567 283.332L504.452 293.19L505.66 350.535Z" fill="#CACACA"/>
<path d="M541.947 308.462L541.799 308.404L503.616 293.234L504.06 292.115L542.097 307.226L613.094 297.442L613.259 298.634L541.947 308.462Z" fill="#CACACA"/>
<path d="M542.625 307.837L541.42 307.851L542.186 370.829L543.391 370.815L542.625 307.837Z" fill="#CACACA"/>
<path d="M537.122 305.448L523.358 299.872L589.619 289.322L603.384 294.897L537.122 305.448Z" fill="#CACACA"/>
<path d="M504.076 309.566L503.6 310.671L519.564 317.539L520.04 316.434L504.076 309.566Z" fill="#CACACA"/>
<path d="M511.305 329.43L510.829 330.536L526.793 337.404L527.269 336.298L511.305 329.43Z" fill="#4E9F3D"/>
<path d="M293.948 373.57L295.174 431.797L332.898 451.717L401.599 439.459L403.286 378.933L359.734 363.609L293.948 373.57Z" fill="white"/>
<path d="M332.8 452.346L294.58 432.164L293.334 373.054L359.793 362.992L359.935 363.042L403.9 378.511L402.187 439.965L332.8 452.346ZM295.769 431.43L332.997 451.088L401.01 438.952L402.671 379.355L359.676 364.227L294.561 374.085L295.769 431.43Z" fill="#CACACA"/>
<path d="M332.057 389.357L331.909 389.299L293.725 374.129L294.17 373.01L332.206 388.121L403.203 378.337L403.368 379.529L332.057 389.357Z" fill="#CACACA"/>
<path d="M332.734 388.732L331.529 388.747L332.296 451.724L333.501 451.71L332.734 388.732Z" fill="#CACACA"/>
<path d="M323.897 384.972L313.467 380.767L379.729 370.217L390.158 374.422L323.897 384.972Z" fill="#CACACA"/>
<path d="M294.186 390.461L293.709 391.566L309.673 398.434L310.15 397.329L294.186 390.461Z" fill="#CACACA"/>
<path d="M301.415 410.325L300.938 411.431L316.902 418.299L317.379 417.193L301.415 410.325Z" fill="#4E9F3D"/>
<path d="M359.485 381.553L360.909 449.146L404.7 472.27L484.451 458.04L486.409 387.779L435.853 369.991L359.485 381.553Z" fill="#4E9F3D"/>
<path d="M404.586 473L360.218 449.572L358.772 380.954L435.92 369.274L436.085 369.332L487.122 387.289L485.134 458.628L404.586 473ZM361.599 448.72L404.814 471.54L483.767 457.452L485.695 388.269L435.785 370.708L360.197 382.152L361.599 448.72Z" fill="#3F3D56"/>
<path d="M403.723 399.88L403.552 399.812L359.226 382.202L359.743 380.904L403.897 398.445L486.313 387.087L486.504 388.471L403.723 399.88Z" fill="#3F3D56"/>
<path d="M404.509 399.154L403.111 399.171L404.001 472.278L405.399 472.261L404.509 399.154Z" fill="#3F3D56"/>
<path d="M394.96 394.822L382.143 389.909L459.062 377.662L471.88 382.574L394.96 394.822Z" fill="#3F3D56"/>
<path d="M359.761 401.161L359.208 402.445L377.74 410.417L378.293 409.134L359.761 401.161Z" fill="#3F3D56"/>
<path d="M368.153 424.22L367.6 425.504L386.131 433.477L386.684 432.193L368.153 424.22Z" fill="white"/>
<path d="M525.227 302.303C526.157 301.866 526.98 301.232 527.638 300.443C528.296 299.655 528.773 298.732 529.036 297.739C529.298 296.746 529.34 295.708 529.158 294.698C528.975 293.688 528.573 292.73 527.98 291.891L536.542 278.311L529.553 271.1L517.731 290.446C516.388 291.536 515.491 293.079 515.211 294.785C514.93 296.49 515.286 298.24 516.21 299.701C517.134 301.162 518.562 302.234 520.224 302.714C521.885 303.194 523.666 303.047 525.227 302.303V302.303Z" fill="#FFB6B6"/>
<path d="M566.804 217.026L560.67 212.987C560.67 212.987 555.936 214.048 550.902 223.724C545.868 233.4 525.565 276.659 525.565 276.659L533.911 285.123L556.174 251.185L566.804 217.026Z" fill="#1E5128"/>
</g>
<defs>
<clipPath id="clip0_720_2">
<rect width="659" height="473" fill="white"/>
</clipPath>
</defs>
</svg>
