<svg width="599" height="444" viewBox="0 0 599 444" fill="none" xmlns="http://www.w3.org/2000/svg">
<g clip-path="url(#clip0_757_2)">
<path d="M168.905 389.901C171.085 372.281 181.947 354.92 198.663 349.186C192.071 367.322 192.072 387.218 198.667 405.353C201.235 412.338 204.816 419.838 202.4 426.878C200.896 431.258 197.219 434.609 193.108 436.705C188.997 438.8 184.435 439.799 179.93 440.777L179.043 441.515C171.891 425.279 166.725 407.522 168.905 389.901Z" fill="#D8E9A8"/>
<path d="M198.829 349.519C189.094 360.484 183.044 374.254 181.537 388.873C181.157 392.014 181.272 395.196 181.878 398.301C182.565 401.307 184.041 404.073 186.151 406.312C188.077 408.439 190.291 410.39 191.669 412.951C192.355 414.272 192.756 415.725 192.844 417.212C192.933 418.7 192.708 420.19 192.183 421.584C190.967 425.092 188.569 427.951 186.127 430.665C183.417 433.679 180.553 436.766 179.401 440.761C179.262 441.245 178.523 440.999 178.662 440.516C180.667 433.565 187.379 429.616 190.58 423.356C192.073 420.435 192.7 417.043 191.3 413.959C190.075 411.263 187.793 409.248 185.825 407.111C183.734 404.958 182.2 402.322 181.356 399.435C180.595 396.371 180.359 393.199 180.656 390.055C181.214 382.966 182.877 376.009 185.585 369.439C188.634 361.924 192.939 354.988 198.314 348.932C198.647 348.558 199.159 349.147 198.829 349.519L198.829 349.519Z" fill="white"/>
<path d="M181.747 384.137C179.341 383.55 177.222 382.122 175.767 380.109C174.312 378.096 173.616 375.628 173.803 373.147C173.812 373.046 173.859 372.952 173.935 372.885C174.011 372.818 174.11 372.784 174.211 372.789C174.312 372.794 174.407 372.838 174.476 372.912C174.545 372.986 174.582 373.085 174.581 373.186C174.402 375.496 175.05 377.795 176.409 379.667C177.768 381.538 179.748 382.86 181.991 383.394C182.478 383.51 182.231 384.252 181.747 384.137Z" fill="white"/>
<path d="M185.033 405.362C189.377 402.754 192.585 398.596 194.015 393.717C194.156 393.233 194.895 393.479 194.754 393.962C193.256 399.037 189.91 403.358 185.383 406.061C184.951 406.319 184.604 405.618 185.033 405.362Z" fill="white"/>
<path d="M189.356 362.665C190.239 363.087 191.213 363.282 192.191 363.232C193.168 363.182 194.117 362.889 194.954 362.379C195.382 362.116 195.729 362.817 195.304 363.078C194.377 363.637 193.328 363.96 192.248 364.017C191.169 364.075 190.092 363.866 189.112 363.408C189.016 363.373 188.937 363.302 188.891 363.21C188.845 363.118 188.835 363.012 188.864 362.914C188.897 362.816 188.967 362.734 189.059 362.688C189.151 362.641 189.258 362.633 189.356 362.665Z" fill="white"/>
<path d="M249.615 380.658C249.352 380.83 249.089 381.001 248.826 381.18C245.306 383.507 241.98 386.118 238.88 388.987C238.637 389.204 238.393 389.429 238.157 389.654C230.762 396.645 224.723 404.956 220.346 414.164C218.608 417.83 217.149 421.623 215.984 425.511C214.374 430.881 213.053 436.832 209.867 441.224C209.54 441.686 209.184 442.127 208.802 442.545H180.006C179.941 442.512 179.875 442.485 179.809 442.452L178.66 442.505C178.706 442.3 178.758 442.089 178.804 441.884C178.831 441.765 178.863 441.647 178.89 441.528C178.909 441.448 178.929 441.369 178.942 441.297C178.949 441.27 178.955 441.244 178.962 441.224C178.975 441.151 178.995 441.085 179.008 441.019C179.297 439.837 179.595 438.655 179.902 437.472C179.902 437.466 179.902 437.466 179.908 437.459C182.158 428.428 185.466 419.697 189.763 411.449C189.894 411.205 190.026 410.954 190.17 410.71C192.16 407.059 194.443 403.577 196.996 400.3C198.401 398.511 199.894 396.793 201.471 395.155C205.553 390.931 210.271 387.378 215.451 384.627C225.779 379.145 237.736 377.045 248.774 380.394C249.056 380.48 249.333 380.565 249.615 380.658Z" fill="#D8E9A8"/>
<path d="M249.55 381.025C235.211 383.888 222.133 391.221 212.175 401.981C209.991 404.259 208.177 406.87 206.801 409.716C205.549 412.531 205.071 415.633 205.415 418.698C205.679 421.562 206.278 424.46 205.845 427.339C205.601 428.809 205.051 430.211 204.231 431.453C203.411 432.694 202.339 433.747 201.085 434.543C198.013 436.608 194.386 437.439 190.811 438.129C186.842 438.894 182.707 439.626 179.394 442.118C178.993 442.42 178.55 441.776 178.951 441.475C184.715 437.138 192.438 438.048 198.743 434.987C201.686 433.559 204.217 431.23 204.946 427.92C205.583 425.026 204.968 422.036 204.676 419.139C204.296 416.154 204.65 413.121 205.705 410.305C206.933 407.398 208.643 404.722 210.764 402.392C215.455 397.069 220.949 392.521 227.046 388.914C233.981 384.759 241.572 381.827 249.49 380.245C249.981 380.147 250.037 380.928 249.55 381.025H249.55Z" fill="white"/>
<path d="M215.179 398.327C213.61 396.402 212.773 393.979 212.816 391.491C212.86 389.003 213.782 386.612 215.418 384.744C215.75 384.367 216.348 384.869 216.016 385.246C214.489 386.982 213.63 389.21 213.594 391.527C213.558 393.844 214.347 396.098 215.819 397.881C216.138 398.269 215.496 398.713 215.179 398.327Z" fill="white"/>
<path d="M205.091 417.263C210.122 417.81 215.173 416.432 219.237 413.401C219.639 413.101 220.082 413.744 219.68 414.045C215.445 417.19 210.186 418.614 204.952 418.033C204.453 417.977 204.595 417.208 205.091 417.263Z" fill="white"/>
<path d="M234.114 385.788C234.566 386.66 235.227 387.405 236.037 387.957C236.847 388.508 237.781 388.849 238.754 388.948C239.253 388.997 239.111 389.767 238.615 389.718C237.54 389.604 236.51 389.226 235.613 388.619C234.717 388.011 233.982 387.192 233.474 386.234C233.418 386.147 233.397 386.043 233.416 385.942C233.434 385.841 233.49 385.75 233.572 385.689C233.657 385.631 233.762 385.608 233.863 385.627C233.964 385.645 234.054 385.703 234.114 385.788L234.114 385.788Z" fill="white"/>
<path d="M194.154 136.808H98.8826C95.9385 136.805 93.116 135.627 91.0342 133.535C88.9525 131.442 87.7815 128.604 87.7782 125.644V73.4799C87.7815 70.5202 88.9525 67.6828 91.0343 65.59C93.1161 63.4972 95.9386 62.3201 98.8826 62.3169H194.154C197.098 62.3201 199.92 63.4972 202.002 65.59C204.084 67.6827 205.255 70.5202 205.258 73.4799V125.644C205.255 128.604 204.084 131.442 202.002 133.535C199.92 135.627 197.098 136.805 194.154 136.808V136.808Z" fill="#E6E6E6"/>
<path d="M339.605 136.808H244.334C241.39 136.805 238.567 135.627 236.486 133.535C234.404 131.442 233.233 128.604 233.229 125.644V73.4799C233.233 70.5202 234.404 67.6828 236.486 65.59C238.567 63.4972 241.39 62.3201 244.334 62.3169H339.605C342.549 62.3201 345.372 63.4972 347.453 65.59C349.535 67.6827 350.706 70.5202 350.709 73.4799V125.644C350.706 128.604 349.535 131.442 347.453 133.535C345.372 135.627 342.549 136.805 339.605 136.808Z" fill="#1E5128"/>
<path d="M485.056 136.808H389.785C386.841 136.805 384.019 135.627 381.937 133.535C379.855 131.442 378.684 128.604 378.681 125.644V73.4799C378.684 70.5202 379.855 67.6828 381.937 65.59C384.019 63.4972 386.841 62.3201 389.785 62.3169H485.056C488 62.3201 490.823 63.4972 492.905 65.59C494.986 67.6827 496.157 70.5202 496.161 73.4799V125.644C496.157 128.604 494.986 131.442 492.905 133.535C490.823 135.627 488 136.805 485.056 136.808Z" fill="#E6E6E6"/>
<path d="M194.154 253.037H98.8826C95.9385 253.034 93.116 251.856 91.0342 249.763C88.9525 247.67 87.7815 244.833 87.7782 241.873V189.709C87.7815 186.749 88.9525 183.912 91.0343 181.819C93.1161 179.726 95.9386 178.549 98.8826 178.546H194.154C197.098 178.549 199.92 179.726 202.002 181.819C204.084 183.912 205.255 186.749 205.258 189.709V241.873C205.255 244.833 204.084 247.67 202.002 249.763C199.92 251.856 197.098 253.034 194.154 253.037Z" fill="#F2F2F2"/>
<path d="M339.605 253.037H244.334C241.39 253.034 238.567 251.856 236.486 249.763C234.404 247.67 233.233 244.833 233.229 241.873V189.709C233.233 186.749 234.404 183.912 236.486 181.819C238.567 179.726 241.39 178.549 244.334 178.546H339.605C342.549 178.549 345.372 179.726 347.453 181.819C349.535 183.912 350.706 186.749 350.709 189.709V241.873C350.706 244.833 349.535 247.67 347.453 249.763C345.372 251.856 342.549 253.034 339.605 253.037Z" fill="#E6E6E6"/>
<path d="M346.332 262.636C355.729 262.636 363.348 254.977 363.348 245.53C363.348 236.082 355.729 228.424 346.332 228.424C336.934 228.424 329.316 236.082 329.316 245.53C329.316 254.977 336.934 262.636 346.332 262.636Z" fill="#1E5128"/>
<path d="M353.398 244.093H347.612V238.277C347.612 238.098 347.577 237.92 347.509 237.754C347.44 237.588 347.34 237.437 347.214 237.31C347.087 237.182 346.937 237.082 346.772 237.013C346.607 236.944 346.43 236.909 346.251 236.909V236.909C346.072 236.909 345.895 236.944 345.73 237.013C345.565 237.082 345.415 237.182 345.289 237.31C345.162 237.437 345.062 237.588 344.993 237.754C344.925 237.92 344.89 238.098 344.89 238.277V244.093H339.104C338.926 244.093 338.749 244.129 338.583 244.197C338.418 244.266 338.268 244.367 338.142 244.494C338.015 244.621 337.915 244.772 337.847 244.938C337.778 245.104 337.743 245.282 337.743 245.462V245.462C337.743 245.642 337.778 245.82 337.847 245.986C337.915 246.152 338.015 246.303 338.142 246.43C338.268 246.557 338.418 246.658 338.583 246.726C338.749 246.795 338.926 246.83 339.104 246.83H344.89V252.646C344.89 252.826 344.925 253.004 344.993 253.17C345.062 253.336 345.162 253.487 345.289 253.614C345.415 253.741 345.565 253.842 345.73 253.911C345.895 253.98 346.072 254.015 346.251 254.015V254.015C346.612 254.015 346.958 253.871 347.214 253.614C347.469 253.358 347.613 253.009 347.613 252.647V246.83H353.398C353.576 246.83 353.754 246.795 353.919 246.726C354.084 246.657 354.234 246.557 354.36 246.43C354.487 246.302 354.587 246.152 354.655 245.986C354.724 245.82 354.759 245.642 354.759 245.462V245.462C354.759 245.282 354.724 245.104 354.655 244.938C354.587 244.772 354.487 244.621 354.36 244.494C354.234 244.367 354.084 244.266 353.919 244.197C353.754 244.129 353.576 244.093 353.398 244.093V244.093L353.398 244.093Z" fill="white"/>
<path d="M494.021 149.407C503.418 149.407 511.037 141.748 511.037 132.301C511.037 122.853 503.418 115.195 494.021 115.195C484.623 115.195 477.005 122.853 477.005 132.301C477.005 141.748 484.623 149.407 494.021 149.407Z" fill="#1E5128"/>
<path d="M501.087 130.864H495.301V125.048C495.301 124.868 495.266 124.69 495.198 124.524C495.129 124.358 495.029 124.207 494.903 124.08C494.776 123.953 494.626 123.852 494.461 123.784C494.296 123.715 494.119 123.679 493.94 123.679V123.679C493.761 123.679 493.584 123.715 493.419 123.784C493.254 123.852 493.104 123.953 492.977 124.08C492.851 124.207 492.751 124.358 492.682 124.524C492.614 124.69 492.579 124.868 492.579 125.048V130.864H486.793C486.615 130.864 486.438 130.899 486.272 130.968C486.107 131.037 485.957 131.138 485.831 131.265C485.704 131.392 485.604 131.543 485.536 131.709C485.467 131.875 485.432 132.053 485.432 132.233V132.233C485.432 132.412 485.467 132.59 485.536 132.756C485.604 132.922 485.704 133.073 485.831 133.2C485.957 133.327 486.107 133.428 486.272 133.497C486.438 133.566 486.615 133.601 486.793 133.601H492.579V139.417C492.579 139.597 492.614 139.775 492.682 139.941C492.751 140.107 492.851 140.258 492.978 140.385C493.104 140.512 493.254 140.613 493.419 140.682C493.584 140.75 493.761 140.786 493.94 140.786V140.786C494.301 140.786 494.647 140.642 494.903 140.385C495.158 140.128 495.301 139.78 495.301 139.417V133.601H501.087C501.265 133.601 501.442 133.566 501.608 133.497C501.773 133.428 501.923 133.327 502.049 133.2C502.176 133.073 502.276 132.922 502.344 132.756C502.413 132.59 502.448 132.412 502.448 132.233V132.233C502.448 132.053 502.413 131.875 502.344 131.709C502.276 131.543 502.176 131.392 502.049 131.265C501.923 131.138 501.773 131.037 501.608 130.968C501.442 130.899 501.265 130.864 501.087 130.864V130.864L501.087 130.864Z" fill="white"/>
<path d="M200.881 147.907C210.278 147.907 217.896 140.248 217.896 130.801C217.896 121.353 210.278 113.695 200.881 113.695C191.483 113.695 183.865 121.353 183.865 130.801C183.865 140.248 191.483 147.907 200.881 147.907Z" fill="#1E5128"/>
<path d="M207.946 129.364H202.161V123.548C202.161 123.369 202.126 123.191 202.057 123.025C201.989 122.858 201.889 122.708 201.762 122.581C201.636 122.453 201.486 122.353 201.321 122.284C201.156 122.215 200.979 122.18 200.8 122.18V122.18C200.621 122.18 200.444 122.215 200.279 122.284C200.114 122.353 199.964 122.453 199.837 122.581C199.711 122.708 199.61 122.858 199.542 123.025C199.474 123.191 199.438 123.369 199.438 123.548V123.548V129.364H193.653C193.474 129.364 193.297 129.4 193.132 129.468C192.967 129.537 192.817 129.638 192.69 129.765C192.564 129.892 192.464 130.043 192.395 130.209C192.327 130.375 192.292 130.553 192.292 130.733V130.733C192.292 131.096 192.435 131.444 192.69 131.701C192.946 131.957 193.292 132.101 193.653 132.101H199.438V137.917C199.438 138.097 199.474 138.275 199.542 138.441C199.61 138.607 199.711 138.758 199.837 138.885C199.964 139.012 200.114 139.113 200.279 139.182C200.444 139.251 200.621 139.286 200.8 139.286V139.286C200.979 139.286 201.156 139.251 201.321 139.182C201.486 139.113 201.636 139.012 201.762 138.885C201.889 138.758 201.989 138.607 202.057 138.441C202.126 138.275 202.161 138.097 202.161 137.918V132.101H207.946C208.125 132.101 208.302 132.066 208.467 131.997C208.633 131.928 208.783 131.828 208.909 131.701C209.035 131.573 209.136 131.423 209.204 131.257C209.273 131.091 209.308 130.913 209.308 130.733V130.733C209.308 130.37 209.164 130.022 208.909 129.765C208.654 129.508 208.307 129.364 207.946 129.364V129.364V129.364Z" fill="white"/>
<path d="M328.274 107.17C328.584 108.114 328.685 109.115 328.569 110.103C328.453 111.09 328.123 112.04 327.602 112.885C327.082 113.731 326.383 114.451 325.556 114.995C324.728 115.54 323.792 115.895 322.813 116.037L314.945 170.028L302.039 163.691L315.02 109.798C314.893 108.129 315.379 106.471 316.386 105.138C317.394 103.805 318.852 102.89 320.486 102.566C322.12 102.242 323.815 102.532 325.25 103.381C326.685 104.229 327.761 105.577 328.274 107.17L328.274 107.17Z" fill="#9E616A"/>
<path d="M234.3 280.088C234.875 279.279 235.266 278.353 235.446 277.375C235.626 276.398 235.59 275.392 235.342 274.43C235.094 273.467 234.638 272.571 234.008 271.805C233.378 271.039 232.589 270.42 231.695 269.994L237.003 212.565L225.886 218.294L222.414 273.634C221.801 275.19 221.777 276.919 222.347 278.492C222.917 280.065 224.04 281.373 225.506 282.168C226.971 282.964 228.675 283.192 230.296 282.808C231.917 282.425 233.341 281.457 234.3 280.088H234.3Z" fill="#9E616A"/>
<path d="M241.895 251.042L289.604 249.197L292.356 199.391H237.308L241.895 251.042Z" fill="#9E616A"/>
<path d="M233.041 426.938L241.193 426.937L245.071 395.325H233.039L233.041 426.938Z" fill="#9E616A"/>
<path d="M231.018 422.895L243.906 422.122V427.672L256.158 436.179C256.764 436.599 257.219 437.203 257.459 437.902C257.699 438.601 257.71 439.359 257.492 440.065C257.273 440.77 256.835 441.387 256.243 441.826C255.65 442.264 254.934 442.5 254.199 442.5H238.855L236.211 437.009L235.178 442.5H229.393L231.018 422.895Z" fill="#2F2E41"/>
<path d="M269.302 426.938L277.455 426.937L281.333 395.325H269.3L269.302 426.938Z" fill="#9E616A"/>
<path d="M241.233 239.35C241.233 239.35 226.958 250.936 234.697 292.311C233.518 292.453 234.853 294.788 234.853 294.788L235.969 328.501L236.832 332.365L233.963 338.6L235.146 345.374L231.5 406.857L244.969 408.608L257.858 344.762L260.313 337.584L262.775 331.292L261.447 324.582L262.536 314.168L269.967 279.053L271.786 339.955L269.248 345.77L270.66 352.152L267.513 355.54L266.27 412.522L280.631 413.197L292.515 355.756L291.593 348.425L293.174 343.005V330.346L295.882 324.371L301.785 291.791C301.785 291.791 303.566 266.327 290.573 236.362L241.233 239.35Z" fill="#2F2E41"/>
<path d="M247.051 157.997C247.051 157.997 229.021 161.581 225.915 177.039C222.808 192.497 220.809 227.477 220.809 227.477L221.49 232.348L238.93 236.414L250.062 187.401L247.051 157.997Z" fill="#D8E9A8"/>
<path d="M288.197 163.214C288.197 163.214 290.025 160.64 300.26 160.243C300.681 160.226 300.159 159.386 300.159 159.386L305.081 135.201L321.484 144.33L318.715 169.686L291.762 200.505L288.197 163.214Z" fill="#D8E9A8"/>
<path d="M277.973 235.314C270.251 235.315 258.627 234.458 241.129 231.846C240.002 231.676 238.958 231.147 238.151 230.338C237.344 229.528 236.816 228.481 236.643 227.348C236.072 226.742 235.7 225.973 235.578 225.146C235.457 224.32 235.591 223.476 235.963 222.729L235.98 222.697L235.583 222.227C234.97 221.503 234.61 220.597 234.558 219.647C234.505 218.698 234.764 217.757 235.295 216.969L229.875 177.995C229.325 174.125 230.167 170.185 232.249 166.883C234.331 163.581 237.517 161.134 241.234 159.983L243.234 159.356L250.8 149.408L250.949 149.41L275.236 149.735L283.118 159.797L295.858 162.817L295.891 163.012L298.85 180.195C300.388 189.131 296.86 192.647 292.356 200.506L293.678 222.577L294.278 223.673C294.61 224.279 294.722 224.983 294.593 225.664C294.464 226.344 294.102 226.957 293.571 227.398C293.973 228.552 294 229.805 293.649 230.976L293.337 232.012C293.338 232.041 293.255 232.462 292.582 232.976C291.369 233.902 287.887 235.314 277.973 235.314Z" fill="#D8E9A8"/>
<path d="M267.28 422.895L280.167 422.122V427.672L292.42 436.179C293.025 436.599 293.481 437.203 293.721 437.902C293.961 438.601 293.972 439.359 293.753 440.065C293.534 440.77 293.097 441.387 292.504 441.826C291.912 442.264 291.196 442.5 290.46 442.5H275.117L272.472 437.009L271.44 442.5H265.655L267.28 422.895Z" fill="#2F2E41"/>
<path d="M280.815 127.73C282.5 117.295 275.451 107.463 265.071 105.769C254.691 104.076 244.911 111.163 243.226 121.598C241.542 132.033 248.591 141.865 258.971 143.558C269.351 145.251 279.131 138.165 280.815 127.73Z" fill="#9E616A"/>
<path d="M273.155 105.96C266.176 101.135 260.03 100.4 254.982 101.769C254.328 100.751 253.41 99.9318 252.328 99.3989C248.391 89.4256 236.409 83.4362 226.126 86.3478C215.777 89.2781 208.637 100.803 210.584 111.433C211.791 118.022 215.916 123.727 217.575 130.216C220.786 142.778 212.952 157.166 200.696 161.216C212.3 163.558 225.074 156.432 229.237 145.293C231.259 139.883 231.381 133.976 231.638 128.202C231.705 124.217 232.191 120.25 233.087 116.367C233.531 114.625 234.159 112.936 234.96 111.328C236.705 107.793 239.603 104.967 243.17 103.321C242.85 104.314 242.77 105.37 242.937 106.4C243.103 107.43 243.511 108.406 244.126 109.247C241.404 112.674 239.923 116.381 239.923 118.6C234.27 128.988 242.354 137.91 252.687 143.594C256.808 145.872 261.567 146.706 266.212 145.964L266.645 144.109L267.23 145.78L269.186 151.382C271.441 152.479 273.677 153.682 275.893 154.99C275.051 151.014 274.37 147.046 273.901 143.167C273.252 137.886 275.515 130.025 277.147 125.244C278.159 122.298 278.678 119.203 278.684 116.086V115.95L280.273 121.081L286.058 118.6C284.981 112.394 286.058 105.349 273.155 105.96Z" fill="#2F2E41"/>
<path d="M511.073 443.45H87.9265C87.6918 443.449 87.467 443.354 87.3014 443.187C87.1358 443.02 87.0428 442.793 87.0428 442.557C87.0428 442.321 87.1358 442.095 87.3014 441.927C87.467 441.76 87.6918 441.665 87.9265 441.664H511.073C511.308 441.665 511.533 441.76 511.699 441.927C511.864 442.095 511.957 442.321 511.957 442.557C511.957 442.793 511.864 443.02 511.699 443.187C511.533 443.354 511.308 443.449 511.073 443.45V443.45Z" fill="#CCCCCC"/>
<path d="M198.935 264.884C208.333 264.884 215.951 257.225 215.951 247.778C215.951 238.33 208.333 230.672 198.935 230.672C189.538 230.672 181.92 238.33 181.92 247.778C181.92 257.225 189.538 264.884 198.935 264.884Z" fill="#E6E6E6"/>
<path d="M476.956 302.302H417.274C415.43 302.3 413.661 301.562 412.357 300.251C411.053 298.94 410.32 297.163 410.318 295.309V262.63C410.32 260.776 411.053 258.999 412.357 257.688C413.662 256.377 415.43 255.639 417.274 255.637H476.956C478.8 255.639 480.568 256.377 481.872 257.688C483.176 258.999 483.91 260.776 483.912 262.63V295.309C483.91 297.163 483.177 298.94 481.872 300.251C480.568 301.562 478.8 302.3 476.956 302.302V302.302Z" fill="#F2F2F2"/>
<path d="M477.835 289.028C482.826 289.028 486.871 284.961 486.871 279.944C486.871 274.927 482.826 270.86 477.835 270.86C472.845 270.86 468.799 274.927 468.799 279.944C468.799 284.961 472.845 289.028 477.835 289.028Z" fill="#1E5128"/>
<path d="M481.587 279.181H478.515V276.092C478.515 275.997 478.496 275.903 478.46 275.814C478.424 275.726 478.37 275.646 478.303 275.579C478.236 275.511 478.157 275.458 478.069 275.421C477.981 275.385 477.887 275.366 477.792 275.366C477.6 275.366 477.417 275.442 477.281 275.579C477.145 275.715 477.069 275.9 477.069 276.092V279.181H473.997C473.805 279.181 473.621 279.258 473.486 279.394C473.35 279.53 473.274 279.715 473.274 279.908V279.908C473.274 280.003 473.293 280.098 473.329 280.186C473.365 280.274 473.419 280.354 473.486 280.422C473.553 280.489 473.633 280.543 473.72 280.579C473.808 280.616 473.902 280.635 473.997 280.635H477.069V283.723C477.069 283.819 477.088 283.913 477.124 284.001C477.161 284.09 477.214 284.17 477.281 284.237C477.348 284.305 477.428 284.358 477.516 284.395C477.603 284.431 477.697 284.45 477.792 284.45V284.45C477.984 284.45 478.168 284.374 478.303 284.237C478.439 284.101 478.515 283.916 478.515 283.723V280.635H481.587C481.779 280.635 481.963 280.558 482.099 280.422C482.234 280.286 482.31 280.101 482.31 279.908V279.908C482.31 279.813 482.292 279.718 482.255 279.63C482.219 279.542 482.166 279.462 482.099 279.394C482.032 279.327 481.952 279.273 481.864 279.237C481.776 279.2 481.682 279.181 481.587 279.181L481.587 279.181Z" fill="white"/>
<path d="M490.757 308.863H441.574C439.487 308.861 437.485 308.026 436.009 306.542C434.533 305.058 433.703 303.047 433.7 300.948V271.434C433.701 271.047 433.854 270.677 434.126 270.404C434.398 270.132 434.767 269.979 435.151 269.979C435.535 269.979 435.904 270.132 436.175 270.404C436.447 270.677 436.601 271.047 436.602 271.434V279.338L493.731 284.559C494.872 284.579 495.96 285.049 496.76 285.867C497.56 286.685 498.009 287.786 498.01 288.933C498.01 289.023 498.002 289.113 497.986 289.202L495.107 304.637C495.067 305.771 494.592 306.845 493.78 307.633C492.969 308.421 491.886 308.862 490.757 308.863V308.863ZM436.602 282.266V300.948C436.603 302.273 437.128 303.544 438.06 304.481C438.992 305.418 440.256 305.945 441.574 305.947H490.758C491.142 305.946 491.511 305.792 491.783 305.519C492.055 305.246 492.208 304.875 492.208 304.488C492.208 304.398 492.216 304.308 492.233 304.22L495.105 288.821C495.076 288.455 494.912 288.113 494.644 287.863C494.376 287.614 494.024 287.475 493.659 287.475C493.615 287.475 493.571 287.473 493.527 287.469L436.602 282.266Z" fill="#1E5128"/>
<path d="M429.385 322.448C430.72 322.448 431.802 321.36 431.802 320.018C431.802 318.675 430.72 317.587 429.385 317.587C428.049 317.587 426.967 318.675 426.967 320.018C426.967 321.36 428.049 322.448 429.385 322.448Z" fill="#1E5128"/>
<path d="M489.703 322.448C491.038 322.448 492.121 321.36 492.121 320.018C492.121 318.675 491.038 317.587 489.703 317.587C488.368 317.587 487.286 318.675 487.286 320.018C487.286 321.36 488.368 322.448 489.703 322.448Z" fill="#1E5128"/>
<path d="M492.121 317.587H427.451C427.066 317.587 426.697 317.433 426.425 317.16C426.153 316.886 426 316.515 426 316.129C426 315.742 426.153 315.371 426.425 315.098C426.697 314.824 427.066 314.67 427.451 314.67H492.121C492.506 314.67 492.875 314.824 493.147 315.098C493.419 315.371 493.571 315.742 493.571 316.129C493.571 316.515 493.419 316.886 493.147 317.16C492.875 317.433 492.506 317.587 492.121 317.587V317.587Z" fill="#1E5128"/>
<path d="M439.019 272.405H426.447C426.063 272.405 425.695 272.25 425.424 271.977C425.152 271.704 425 271.333 425 270.947C425 270.561 425.152 270.19 425.424 269.917C425.695 269.644 426.063 269.49 426.447 269.489H439.019C439.403 269.49 439.772 269.644 440.043 269.917C440.314 270.19 440.467 270.561 440.467 270.947C440.467 271.333 440.314 271.704 440.043 271.977C439.772 272.25 439.403 272.405 439.019 272.405V272.405Z" fill="#1E5128"/>
<path d="M449.985 316.845C449.638 316.845 449.303 316.72 449.04 316.492L439.505 308.255C439.36 308.131 439.241 307.978 439.155 307.807C439.068 307.636 439.017 307.45 439.002 307.259C438.987 307.068 439.01 306.875 439.07 306.693C439.129 306.511 439.224 306.342 439.348 306.197C439.472 306.051 439.624 305.932 439.794 305.846C439.964 305.759 440.15 305.707 440.34 305.693C440.53 305.679 440.722 305.702 440.903 305.762C441.084 305.822 441.252 305.918 441.396 306.043L450.931 314.28C451.155 314.474 451.316 314.733 451.39 315.021C451.464 315.31 451.448 315.614 451.345 315.893C451.242 316.173 451.057 316.414 450.813 316.584C450.57 316.754 450.281 316.845 449.985 316.845V316.845Z" fill="#1E5128"/>
<path d="M451.114 307.967C450.923 307.967 450.735 307.93 450.559 307.857C450.383 307.783 450.223 307.676 450.088 307.54C449.953 307.405 449.847 307.244 449.774 307.067C449.701 306.89 449.663 306.701 449.663 306.509V283.1C449.663 282.713 449.816 282.342 450.088 282.069C450.36 281.795 450.729 281.642 451.114 281.642C451.499 281.642 451.868 281.795 452.14 282.069C452.412 282.342 452.564 282.713 452.564 283.1V306.509C452.564 306.701 452.527 306.89 452.454 307.067C452.381 307.244 452.274 307.405 452.14 307.54C452.005 307.676 451.845 307.783 451.669 307.856C451.493 307.93 451.304 307.967 451.114 307.967H451.114Z" fill="#1E5128"/>
<path d="M481.757 307.968C481.566 307.968 481.378 307.93 481.202 307.857C481.026 307.783 480.866 307.676 480.731 307.54C480.596 307.405 480.489 307.244 480.416 307.067C480.344 306.89 480.306 306.701 480.306 306.509V285.044C480.307 284.658 480.46 284.288 480.732 284.015C481.004 283.743 481.372 283.589 481.757 283.589C482.141 283.589 482.509 283.743 482.781 284.015C483.053 284.288 483.206 284.658 483.207 285.044V306.509C483.207 306.701 483.17 306.89 483.097 307.067C483.024 307.244 482.917 307.405 482.782 307.54C482.648 307.676 482.488 307.783 482.312 307.857C482.136 307.93 481.947 307.968 481.757 307.968H481.757Z" fill="#1E5128"/>
</g>
<defs>
<clipPath id="clip0_757_2">
<rect width="599" height="443.45" fill="white"/>
</clipPath>
</defs>
</svg>
