<svg width="599" height="445" viewBox="0 0 599 445" fill="none" xmlns="http://www.w3.org/2000/svg">
<g clip-path="url(#clip0_720_56)">
<path d="M168.905 390.84C171.085 373.22 181.947 355.859 198.663 350.125C192.071 368.261 192.072 388.157 198.667 406.292C201.235 413.277 204.816 420.777 202.4 427.817C200.896 432.197 197.219 435.548 193.108 437.643C188.997 439.739 184.435 440.738 179.93 441.716L179.043 442.454C171.891 426.218 166.725 408.461 168.905 390.84Z" fill="#F0F0F0"/>
<path d="M198.829 350.458C189.094 361.423 183.044 375.193 181.537 389.812C181.157 392.953 181.272 396.135 181.878 399.24C182.565 402.246 184.041 405.012 186.151 407.251C188.077 409.378 190.291 411.329 191.669 413.89C192.355 415.211 192.756 416.664 192.844 418.151C192.933 419.639 192.708 421.129 192.183 422.523C190.967 426.031 188.569 428.89 186.127 431.604C183.417 434.618 180.553 437.705 179.401 441.7C179.262 442.184 178.523 441.938 178.662 441.455C180.667 434.504 187.379 430.555 190.58 424.295C192.073 421.373 192.7 417.982 191.3 414.898C190.075 412.202 187.793 410.187 185.825 408.05C183.734 405.897 182.2 403.261 181.356 400.374C180.595 397.31 180.359 394.138 180.656 390.994C181.214 383.905 182.877 376.948 185.585 370.378C188.634 362.863 192.939 355.927 198.314 349.871C198.647 349.496 199.159 350.086 198.829 350.458L198.829 350.458Z" fill="white"/>
<path d="M181.747 385.076C179.341 384.489 177.222 383.061 175.767 381.048C174.312 379.035 173.616 376.567 173.803 374.086C173.812 373.985 173.859 373.891 173.935 373.824C174.011 373.757 174.11 373.723 174.211 373.728C174.312 373.733 174.407 373.777 174.476 373.851C174.545 373.925 174.582 374.024 174.581 374.125C174.402 376.435 175.05 378.734 176.409 380.605C177.768 382.477 179.748 383.799 181.991 384.333C182.478 384.449 182.231 385.191 181.747 385.076Z" fill="white"/>
<path d="M185.033 406.301C189.378 403.693 192.585 399.535 194.015 394.656C194.156 394.172 194.895 394.418 194.754 394.901C193.256 399.976 189.91 404.296 185.383 407C184.952 407.258 184.604 406.557 185.033 406.301Z" fill="white"/>
<path d="M189.356 363.604C190.239 364.026 191.213 364.221 192.191 364.171C193.168 364.121 194.117 363.828 194.954 363.318C195.382 363.055 195.729 363.756 195.304 364.017C194.377 364.576 193.328 364.899 192.248 364.956C191.169 365.014 190.092 364.805 189.112 364.347C189.016 364.312 188.937 364.241 188.891 364.149C188.845 364.057 188.835 363.951 188.864 363.853C188.897 363.755 188.967 363.673 189.059 363.627C189.151 363.58 189.258 363.572 189.356 363.604Z" fill="white"/>
<path d="M249.615 381.597C249.352 381.769 249.089 381.94 248.826 382.119C245.306 384.446 241.98 387.057 238.88 389.925C238.637 390.143 238.393 390.368 238.157 390.593C230.762 397.584 224.723 405.895 220.346 415.103C218.608 418.769 217.149 422.562 215.984 426.45C214.374 431.82 213.053 437.771 209.867 442.163C209.54 442.625 209.184 443.066 208.802 443.484H180.006C179.941 443.451 179.875 443.424 179.809 443.391L178.66 443.444C178.706 443.239 178.758 443.028 178.804 442.823C178.831 442.704 178.863 442.586 178.89 442.467C178.909 442.387 178.929 442.308 178.942 442.235C178.949 442.209 178.955 442.183 178.962 442.163C178.975 442.09 178.995 442.024 179.008 441.958C179.297 440.776 179.595 439.594 179.902 438.411C179.902 438.405 179.902 438.405 179.908 438.398C182.158 429.367 185.466 420.636 189.763 412.388C189.894 412.144 190.026 411.893 190.17 411.649C192.16 407.998 194.443 404.516 196.996 401.239C198.401 399.45 199.894 397.732 201.471 396.094C205.553 391.87 210.271 388.317 215.451 385.566C225.779 380.084 237.736 377.984 248.774 381.332C249.056 381.419 249.333 381.504 249.615 381.597Z" fill="#F0F0F0"/>
<path d="M249.55 381.964C235.211 384.827 222.133 392.16 212.175 402.92C209.991 405.198 208.177 407.809 206.801 410.655C205.549 413.47 205.071 416.572 205.415 419.637C205.679 422.501 206.278 425.399 205.845 428.278C205.601 429.748 205.051 431.15 204.231 432.392C203.411 433.633 202.339 434.686 201.085 435.482C198.013 437.547 194.386 438.378 190.811 439.067C186.842 439.833 182.707 440.565 179.394 443.057C178.993 443.359 178.55 442.715 178.951 442.414C184.715 438.077 192.438 438.987 198.743 435.926C201.686 434.498 204.217 432.169 204.946 428.859C205.583 425.965 204.968 422.975 204.676 420.078C204.296 417.093 204.65 414.06 205.705 411.244C206.933 408.337 208.643 405.661 210.764 403.331C215.455 398.008 220.949 393.46 227.046 389.853C233.981 385.698 241.572 382.766 249.49 381.184C249.981 381.086 250.037 381.867 249.55 381.964H249.55Z" fill="white"/>
<path d="M215.179 399.266C213.61 397.341 212.773 394.918 212.816 392.43C212.86 389.942 213.782 387.551 215.418 385.683C215.75 385.306 216.348 385.808 216.016 386.185C214.489 387.921 213.63 390.149 213.594 392.466C213.558 394.783 214.347 397.037 215.819 398.82C216.138 399.208 215.496 399.651 215.179 399.266Z" fill="white"/>
<path d="M205.091 418.202C210.122 418.749 215.173 417.37 219.237 414.34C219.639 414.04 220.082 414.683 219.68 414.984C215.445 418.129 210.186 419.553 204.952 418.972C204.453 418.916 204.595 418.147 205.091 418.202Z" fill="white"/>
<path d="M234.114 386.727C234.566 387.599 235.227 388.344 236.037 388.896C236.847 389.447 237.781 389.788 238.754 389.887C239.253 389.936 239.111 390.706 238.615 390.657C237.54 390.542 236.51 390.165 235.613 389.558C234.717 388.95 233.982 388.131 233.474 387.173C233.418 387.086 233.397 386.982 233.416 386.881C233.434 386.78 233.49 386.689 233.572 386.628C233.657 386.57 233.762 386.547 233.863 386.566C233.964 386.584 234.054 386.642 234.114 386.727L234.114 386.727Z" fill="white"/>
<path d="M194.154 137.747H98.8825C95.9384 137.744 93.1159 136.566 91.0341 134.474C88.9523 132.381 87.7814 129.543 87.7781 126.583V74.4189C87.7814 71.4592 88.9524 68.6217 91.0342 66.529C93.1159 64.4362 95.9385 63.2591 98.8825 63.2559H194.154C197.098 63.2591 199.92 64.4362 202.002 66.529C204.084 68.6217 205.255 71.4592 205.258 74.4189V126.583C205.255 129.543 204.084 132.381 202.002 134.474C199.92 136.566 197.098 137.744 194.154 137.747V137.747Z" fill="#E6E6E6"/>
<path d="M339.605 137.747H244.334C241.39 137.744 238.567 136.566 236.486 134.474C234.404 132.381 233.233 129.543 233.229 126.583V74.4189C233.233 71.4592 234.404 68.6217 236.486 66.529C238.567 64.4362 241.39 63.2591 244.334 63.2559H339.605C342.549 63.2591 345.372 64.4362 347.453 66.529C349.535 68.6217 350.706 71.4592 350.709 74.4189V126.583C350.706 129.543 349.535 132.381 347.453 134.474C345.372 136.566 342.549 137.744 339.605 137.747Z" fill="#4E9F3D"/>
<path d="M485.056 137.747H389.785C386.841 137.744 384.019 136.566 381.937 134.474C379.855 132.381 378.684 129.543 378.681 126.583V74.4189C378.684 71.4592 379.855 68.6217 381.937 66.529C384.019 64.4362 386.841 63.2591 389.785 63.2559H485.056C488 63.2591 490.823 64.4362 492.905 66.529C494.986 68.6217 496.157 71.4592 496.161 74.4189V126.583C496.157 129.543 494.986 132.381 492.905 134.474C490.823 136.566 488 137.744 485.056 137.747Z" fill="#E6E6E6"/>
<path d="M194.154 253.976H98.8825C95.9384 253.972 93.1159 252.795 91.0341 250.702C88.9523 248.609 87.7814 245.772 87.7781 242.812V190.648C87.7814 187.688 88.9524 184.851 91.0342 182.758C93.1159 180.665 95.9385 179.488 98.8825 179.485H194.154C197.098 179.488 199.92 180.665 202.002 182.758C204.084 184.85 205.255 187.688 205.258 190.648V242.812C205.255 245.772 204.084 248.609 202.002 250.702C199.92 252.795 197.098 253.972 194.154 253.976Z" fill="#F2F2F2"/>
<path d="M339.605 253.976H244.334C241.39 253.972 238.567 252.795 236.486 250.702C234.404 248.609 233.233 245.772 233.229 242.812V190.648C233.233 187.688 234.404 184.851 236.486 182.758C238.567 180.665 241.39 179.488 244.334 179.485H339.605C342.549 179.488 345.372 180.665 347.453 182.758C349.535 184.85 350.706 187.688 350.709 190.648V242.812C350.706 245.772 349.535 248.609 347.453 250.702C345.372 252.795 342.549 253.972 339.605 253.976Z" fill="#E6E6E6"/>
<path d="M346.332 263.575C355.729 263.575 363.348 255.916 363.348 246.469C363.348 237.021 355.729 229.363 346.332 229.363C336.934 229.363 329.316 237.021 329.316 246.469C329.316 255.916 336.934 263.575 346.332 263.575Z" fill="#4E9F3D"/>
<path d="M353.398 245.032H347.612V239.216C347.612 239.037 347.577 238.859 347.509 238.693C347.44 238.526 347.34 238.376 347.214 238.249C347.087 238.121 346.937 238.021 346.772 237.952C346.607 237.883 346.43 237.848 346.251 237.848V237.848C346.072 237.848 345.895 237.883 345.73 237.952C345.565 238.021 345.415 238.121 345.289 238.249C345.162 238.376 345.062 238.526 344.993 238.693C344.925 238.859 344.89 239.037 344.89 239.216V245.032H339.104C338.926 245.032 338.749 245.068 338.583 245.136C338.418 245.205 338.268 245.306 338.142 245.433C338.015 245.56 337.915 245.711 337.847 245.877C337.778 246.043 337.743 246.221 337.743 246.401V246.401C337.743 246.581 337.778 246.759 337.847 246.925C337.915 247.091 338.015 247.242 338.142 247.369C338.268 247.496 338.418 247.596 338.583 247.665C338.749 247.734 338.926 247.769 339.104 247.769H344.89V253.585C344.89 253.765 344.925 253.943 344.993 254.109C345.062 254.275 345.162 254.426 345.289 254.553C345.415 254.68 345.565 254.781 345.73 254.85C345.895 254.919 346.072 254.954 346.251 254.954V254.954C346.612 254.954 346.958 254.81 347.214 254.553C347.469 254.297 347.613 253.948 347.613 253.585V247.769H353.398C353.576 247.769 353.754 247.734 353.919 247.665C354.084 247.596 354.234 247.496 354.36 247.369C354.487 247.241 354.587 247.091 354.655 246.925C354.724 246.759 354.759 246.581 354.759 246.401V246.401C354.759 246.221 354.724 246.043 354.655 245.877C354.587 245.711 354.487 245.56 354.36 245.433C354.234 245.306 354.084 245.205 353.919 245.136C353.754 245.068 353.576 245.032 353.398 245.032V245.032L353.398 245.032Z" fill="white"/>
<path d="M494.021 150.346C503.418 150.346 511.037 142.687 511.037 133.24C511.037 123.792 503.418 116.134 494.021 116.134C484.623 116.134 477.005 123.792 477.005 133.24C477.005 142.687 484.623 150.346 494.021 150.346Z" fill="#4E9F3D"/>
<path d="M501.087 131.803H495.301V125.987C495.301 125.807 495.266 125.629 495.198 125.463C495.129 125.297 495.029 125.146 494.903 125.019C494.776 124.892 494.626 124.791 494.461 124.723C494.296 124.654 494.119 124.618 493.94 124.618V124.618C493.761 124.618 493.584 124.654 493.419 124.723C493.254 124.791 493.104 124.892 492.977 125.019C492.851 125.146 492.751 125.297 492.682 125.463C492.614 125.629 492.579 125.807 492.579 125.987V131.803H486.793C486.615 131.803 486.438 131.838 486.272 131.907C486.107 131.976 485.957 132.077 485.831 132.204C485.704 132.331 485.604 132.482 485.536 132.648C485.467 132.814 485.432 132.992 485.432 133.172V133.172C485.432 133.351 485.467 133.529 485.536 133.695C485.604 133.861 485.704 134.012 485.831 134.139C485.957 134.266 486.107 134.367 486.272 134.436C486.438 134.505 486.615 134.54 486.793 134.54H492.579V140.356C492.579 140.536 492.614 140.714 492.682 140.88C492.751 141.046 492.851 141.197 492.978 141.324C493.104 141.451 493.254 141.552 493.419 141.621C493.584 141.689 493.761 141.725 493.94 141.725V141.725C494.301 141.725 494.647 141.581 494.903 141.324C495.158 141.067 495.301 140.719 495.301 140.356V134.54H501.087C501.265 134.54 501.442 134.505 501.608 134.436C501.773 134.367 501.923 134.266 502.049 134.139C502.176 134.012 502.276 133.861 502.344 133.695C502.413 133.529 502.448 133.351 502.448 133.172V133.172C502.448 132.992 502.413 132.814 502.344 132.648C502.276 132.482 502.176 132.331 502.049 132.204C501.923 132.077 501.773 131.976 501.608 131.907C501.442 131.838 501.265 131.803 501.087 131.803V131.803L501.087 131.803Z" fill="white"/>
<path d="M200.88 148.846C210.278 148.846 217.896 141.187 217.896 131.74C217.896 122.292 210.278 114.634 200.88 114.634C191.483 114.634 183.865 122.292 183.865 131.74C183.865 141.187 191.483 148.846 200.88 148.846Z" fill="#4E9F3D"/>
<path d="M207.946 130.303H202.161V124.487C202.161 124.308 202.126 124.13 202.057 123.964C201.989 123.797 201.889 123.647 201.762 123.52C201.636 123.392 201.486 123.292 201.321 123.223C201.156 123.154 200.979 123.119 200.8 123.119V123.119C200.621 123.119 200.444 123.154 200.279 123.223C200.114 123.292 199.964 123.392 199.837 123.52C199.711 123.647 199.61 123.797 199.542 123.964C199.474 124.13 199.438 124.308 199.438 124.487V124.487V130.303H193.653C193.474 130.303 193.297 130.339 193.132 130.407C192.967 130.476 192.817 130.577 192.69 130.704C192.564 130.831 192.464 130.982 192.395 131.148C192.327 131.314 192.292 131.492 192.292 131.672V131.672C192.292 132.035 192.435 132.383 192.69 132.64C192.946 132.896 193.292 133.04 193.653 133.04H199.438V138.856C199.438 139.036 199.474 139.214 199.542 139.38C199.61 139.546 199.711 139.697 199.837 139.824C199.964 139.951 200.114 140.052 200.279 140.121C200.444 140.19 200.621 140.225 200.8 140.225V140.225C200.979 140.225 201.156 140.19 201.321 140.121C201.486 140.052 201.636 139.951 201.762 139.824C201.889 139.697 201.989 139.546 202.057 139.38C202.126 139.214 202.161 139.036 202.161 138.856V133.04H207.946C208.125 133.04 208.302 133.005 208.467 132.936C208.633 132.867 208.783 132.767 208.909 132.64C209.035 132.512 209.136 132.362 209.204 132.196C209.273 132.029 209.308 131.852 209.308 131.672V131.672C209.308 131.309 209.164 130.961 208.909 130.704C208.654 130.447 208.307 130.303 207.946 130.303V130.303V130.303Z" fill="white"/>
<path d="M328.274 108.109C328.584 109.053 328.685 110.054 328.569 111.042C328.453 112.029 328.123 112.979 327.603 113.824C327.082 114.669 326.383 115.39 325.556 115.934C324.728 116.479 323.792 116.834 322.813 116.976L314.945 170.967L302.039 164.629L315.02 110.737C314.893 109.068 315.379 107.41 316.386 106.077C317.394 104.744 318.853 103.829 320.486 103.505C322.12 103.181 323.815 103.471 325.25 104.319C326.686 105.168 327.761 106.516 328.274 108.109L328.274 108.109Z" fill="#9E616A"/>
<path d="M234.3 281.027C234.874 280.218 235.266 279.292 235.446 278.314C235.626 277.337 235.59 276.331 235.342 275.369C235.093 274.406 234.638 273.51 234.008 272.744C233.378 271.978 232.589 271.359 231.695 270.933L237.003 213.504L225.886 219.233L222.414 274.573C221.801 276.129 221.777 277.858 222.347 279.431C222.916 281.004 224.04 282.312 225.505 283.107C226.97 283.903 228.675 284.131 230.296 283.747C231.917 283.364 233.341 282.396 234.3 281.027H234.3Z" fill="#9E616A"/>
<path d="M241.895 251.981L289.604 250.136L292.356 200.33H237.308L241.895 251.981Z" fill="#9E616A"/>
<path d="M233.041 427.877L241.193 427.876L245.071 396.264H233.039L233.041 427.877Z" fill="#9E616A"/>
<path d="M231.018 423.834L243.906 423.061V428.611L256.158 437.118C256.764 437.538 257.219 438.142 257.459 438.841C257.699 439.54 257.71 440.298 257.492 441.004C257.273 441.709 256.835 442.326 256.243 442.765C255.65 443.203 254.934 443.439 254.199 443.439H238.855L236.211 437.948L235.178 443.439H229.393L231.018 423.834Z" fill="#2F2E41"/>
<path d="M269.302 427.877L277.455 427.876L281.333 396.264H269.301L269.302 427.877Z" fill="#9E616A"/>
<path d="M241.233 240.289C241.233 240.289 226.959 251.874 234.697 293.25C233.519 293.392 234.853 295.727 234.853 295.727L235.969 329.44L236.832 333.304L233.964 339.539L235.146 346.313L231.5 407.796L244.969 409.547L257.859 345.701L260.313 338.523L262.775 332.231L261.447 325.521L262.537 315.107L269.967 279.992L271.786 340.894L269.248 346.709L270.66 353.091L267.513 356.479L266.27 413.461L280.632 414.136L292.515 356.695L291.593 349.364L293.174 343.944V331.284L295.882 325.31L301.785 292.73C301.785 292.73 303.566 267.266 290.573 237.301L241.233 240.289Z" fill="#2F2E41"/>
<path d="M247.051 158.936C247.051 158.936 229.021 162.52 225.914 177.978C222.808 193.436 220.809 228.416 220.809 228.416L221.489 233.287L238.93 237.353L250.062 188.34L247.051 158.936Z" fill="#3F3D56"/>
<path d="M288.198 164.153C288.198 164.153 290.025 161.579 300.26 161.181C300.681 161.165 300.159 160.325 300.159 160.325L305.081 136.14L321.484 145.269L318.715 170.625L291.762 201.444L288.198 164.153Z" fill="#3F3D56"/>
<path d="M277.973 236.253C270.251 236.254 258.627 235.397 241.129 232.785C240.002 232.615 238.958 232.086 238.151 231.277C237.344 230.467 236.816 229.42 236.643 228.287C236.072 227.681 235.7 226.912 235.578 226.085C235.457 225.259 235.591 224.415 235.963 223.668L235.98 223.636L235.583 223.166C234.97 222.442 234.61 221.536 234.558 220.586C234.505 219.636 234.764 218.696 235.295 217.908L229.875 178.934C229.325 175.064 230.167 171.124 232.249 167.822C234.331 164.52 237.517 162.073 241.234 160.922L243.234 160.295L250.8 150.347L250.949 150.349L275.236 150.674L283.118 160.736L295.858 163.756L295.891 163.951L298.85 181.133C300.388 190.07 296.86 193.586 292.356 201.444L293.678 223.516L294.278 224.612C294.61 225.218 294.722 225.922 294.593 226.602C294.464 227.283 294.102 227.896 293.571 228.337C293.973 229.491 294 230.744 293.649 231.915L293.337 232.951C293.338 232.98 293.255 233.401 292.582 233.915C291.369 234.841 287.887 236.253 277.973 236.253Z" fill="#3F3D56"/>
<path d="M267.28 423.834L280.167 423.061V428.611L292.42 437.118C293.025 437.538 293.481 438.142 293.721 438.841C293.961 439.54 293.972 440.298 293.753 441.004C293.534 441.709 293.097 442.326 292.504 442.765C291.912 443.203 291.196 443.439 290.46 443.439H275.117L272.472 437.948L271.44 443.439H265.655L267.28 423.834Z" fill="#2F2E41"/>
<path d="M280.815 128.669C282.5 118.234 275.451 108.402 265.071 106.708C254.691 105.015 244.911 112.102 243.226 122.537C241.542 132.972 248.591 142.804 258.971 144.497C269.351 146.19 279.131 139.104 280.815 128.669Z" fill="#9E616A"/>
<path d="M273.155 106.899C266.176 102.074 260.03 101.339 254.982 102.707C254.328 101.69 253.41 100.871 252.328 100.338C248.391 90.3646 236.409 84.3752 226.126 87.2867C215.777 90.2171 208.637 101.742 210.584 112.372C211.791 118.961 215.916 124.666 217.575 131.155C220.786 143.717 212.952 158.105 200.696 162.155C212.3 164.497 225.074 157.371 229.237 146.232C231.259 140.822 231.381 134.915 231.638 129.141C231.705 125.156 232.191 121.189 233.087 117.306C233.531 115.564 234.159 113.875 234.96 112.267C236.705 108.732 239.603 105.906 243.17 104.26C242.85 105.253 242.77 106.309 242.937 107.339C243.103 108.369 243.511 109.345 244.126 110.186C241.404 113.613 239.923 117.32 239.923 119.539C234.27 129.927 242.354 138.849 252.687 144.533C256.808 146.811 261.567 147.645 266.212 146.903L266.645 145.048L267.23 146.719L269.186 152.321C271.441 153.418 273.677 154.621 275.893 155.929C275.051 151.953 274.37 147.985 273.901 144.106C273.252 138.825 275.515 130.964 277.147 126.183C278.159 123.237 278.678 120.142 278.684 117.025V116.889L280.273 122.02L286.058 119.539C284.981 113.333 286.058 106.288 273.155 106.899Z" fill="#2F2E41"/>
<path d="M511.074 444.389H87.9267C87.6919 444.388 87.4671 444.293 87.3015 444.126C87.1359 443.959 87.043 443.732 87.043 443.496C87.043 443.26 87.1359 443.034 87.3015 442.866C87.4671 442.699 87.6919 442.604 87.9267 442.603H511.074C511.308 442.604 511.533 442.699 511.699 442.866C511.864 443.034 511.957 443.26 511.957 443.496C511.957 443.732 511.864 443.959 511.699 444.126C511.533 444.293 511.308 444.388 511.074 444.389V444.389Z" fill="#CCCCCC"/>
<path d="M198.935 265.823C208.333 265.823 215.951 258.164 215.951 248.717C215.951 239.269 208.333 231.611 198.935 231.611C189.538 231.611 181.92 239.269 181.92 248.717C181.92 258.164 189.538 265.823 198.935 265.823Z" fill="#E6E6E6"/>
<path d="M476.956 303.241H417.274C415.43 303.239 413.661 302.501 412.357 301.19C411.053 299.879 410.32 298.102 410.318 296.248V263.569C410.32 261.715 411.053 259.938 412.357 258.627C413.662 257.316 415.43 256.578 417.274 256.576H476.956C478.8 256.578 480.568 257.316 481.872 258.627C483.176 259.938 483.91 261.715 483.912 263.569V296.248C483.91 298.102 483.177 299.879 481.872 301.19C480.568 302.501 478.8 303.239 476.956 303.241V303.241Z" fill="#F2F2F2"/>
<path d="M477.835 289.967C482.826 289.967 486.871 285.9 486.871 280.883C486.871 275.866 482.826 271.799 477.835 271.799C472.845 271.799 468.799 275.866 468.799 280.883C468.799 285.9 472.845 289.967 477.835 289.967Z" fill="#4E9F3D"/>
<path d="M481.587 280.12H478.515V277.031C478.515 276.936 478.496 276.842 478.46 276.753C478.424 276.665 478.37 276.585 478.303 276.518C478.236 276.45 478.157 276.397 478.069 276.36C477.981 276.323 477.887 276.305 477.792 276.305C477.6 276.305 477.417 276.381 477.281 276.518C477.145 276.654 477.069 276.839 477.069 277.031V280.12H473.997C473.805 280.12 473.621 280.197 473.486 280.333C473.35 280.469 473.274 280.654 473.274 280.847V280.847C473.274 280.942 473.293 281.037 473.329 281.125C473.365 281.213 473.419 281.293 473.486 281.361C473.553 281.428 473.633 281.482 473.72 281.518C473.808 281.555 473.902 281.574 473.997 281.574H477.069V284.662C477.069 284.758 477.088 284.852 477.124 284.94C477.161 285.029 477.214 285.109 477.281 285.176C477.348 285.244 477.428 285.297 477.516 285.334C477.603 285.37 477.697 285.389 477.792 285.389V285.389C477.984 285.389 478.168 285.313 478.303 285.176C478.439 285.04 478.515 284.855 478.515 284.662V281.574H481.587C481.779 281.574 481.963 281.497 482.099 281.361C482.234 281.225 482.31 281.04 482.31 280.847V280.847C482.31 280.751 482.292 280.657 482.255 280.569C482.219 280.481 482.166 280.4 482.099 280.333C482.032 280.266 481.952 280.212 481.864 280.175C481.776 280.139 481.682 280.12 481.587 280.12L481.587 280.12Z" fill="white"/>
<path d="M490.757 309.802H441.574C439.487 309.8 437.485 308.965 436.009 307.481C434.533 305.997 433.703 303.986 433.7 301.887V272.372C433.701 271.986 433.854 271.616 434.126 271.343C434.398 271.071 434.767 270.917 435.151 270.917C435.535 270.917 435.904 271.071 436.175 271.343C436.447 271.616 436.601 271.986 436.602 272.372V280.277L493.731 285.498C494.872 285.518 495.96 285.988 496.76 286.806C497.56 287.624 498.009 288.725 498.01 289.872C498.01 289.962 498.002 290.052 497.986 290.141L495.107 305.576C495.067 306.71 494.592 307.784 493.78 308.572C492.969 309.36 491.886 309.801 490.757 309.802V309.802ZM436.602 283.205V301.887C436.603 303.212 437.128 304.483 438.06 305.42C438.992 306.357 440.256 306.884 441.574 306.886H490.758C491.142 306.885 491.511 306.731 491.783 306.458C492.055 306.185 492.208 305.814 492.208 305.427C492.208 305.337 492.216 305.247 492.233 305.159L495.105 289.76C495.076 289.394 494.912 289.052 494.644 288.802C494.376 288.553 494.024 288.414 493.659 288.414C493.615 288.414 493.571 288.412 493.527 288.408L436.602 283.205Z" fill="#4E9F3D"/>
<path d="M429.385 323.387C430.72 323.387 431.802 322.299 431.802 320.957C431.802 319.614 430.72 318.526 429.385 318.526C428.049 318.526 426.967 319.614 426.967 320.957C426.967 322.299 428.049 323.387 429.385 323.387Z" fill="#4E9F3D"/>
<path d="M489.703 323.387C491.038 323.387 492.121 322.299 492.121 320.957C492.121 319.614 491.038 318.526 489.703 318.526C488.368 318.526 487.286 319.614 487.286 320.957C487.286 322.299 488.368 323.387 489.703 323.387Z" fill="#4E9F3D"/>
<path d="M492.121 318.526H427.451C427.066 318.526 426.697 318.372 426.425 318.099C426.153 317.825 426 317.454 426 317.068C426 316.681 426.153 316.31 426.425 316.037C426.697 315.763 427.066 315.609 427.451 315.609H492.121C492.506 315.609 492.875 315.763 493.147 316.037C493.419 316.31 493.571 316.681 493.571 317.068C493.571 317.454 493.419 317.825 493.147 318.099C492.875 318.372 492.506 318.526 492.121 318.526V318.526Z" fill="#4E9F3D"/>
<path d="M439.019 273.344H426.447C426.063 273.343 425.695 273.189 425.424 272.916C425.152 272.643 425 272.272 425 271.886C425 271.5 425.152 271.129 425.424 270.856C425.695 270.583 426.063 270.429 426.447 270.428H439.019C439.403 270.429 439.772 270.583 440.043 270.856C440.314 271.129 440.467 271.5 440.467 271.886C440.467 272.272 440.314 272.643 440.043 272.916C439.772 273.189 439.403 273.343 439.019 273.344V273.344Z" fill="#4E9F3D"/>
<path d="M449.985 317.784C449.638 317.784 449.303 317.659 449.04 317.431L439.505 309.194C439.36 309.07 439.241 308.917 439.155 308.746C439.068 308.575 439.017 308.389 439.002 308.198C438.987 308.007 439.01 307.814 439.07 307.632C439.129 307.45 439.224 307.281 439.348 307.136C439.472 306.99 439.624 306.871 439.794 306.785C439.964 306.698 440.15 306.646 440.34 306.632C440.53 306.618 440.722 306.641 440.903 306.701C441.084 306.761 441.252 306.857 441.396 306.982L450.931 315.219C451.155 315.413 451.316 315.672 451.39 315.96C451.464 316.249 451.448 316.553 451.345 316.832C451.242 317.112 451.057 317.353 450.813 317.523C450.57 317.693 450.281 317.784 449.985 317.784V317.784Z" fill="#4E9F3D"/>
<path d="M451.114 308.906C450.923 308.906 450.735 308.869 450.559 308.795C450.383 308.722 450.223 308.615 450.088 308.479C449.953 308.344 449.847 308.183 449.774 308.006C449.701 307.829 449.663 307.64 449.663 307.448V284.039C449.663 283.652 449.816 283.281 450.088 283.008C450.36 282.734 450.729 282.581 451.114 282.581C451.499 282.581 451.868 282.734 452.14 283.008C452.412 283.281 452.564 283.652 452.564 284.039V307.448C452.564 307.64 452.527 307.829 452.454 308.006C452.381 308.183 452.274 308.344 452.14 308.479C452.005 308.615 451.845 308.722 451.669 308.795C451.493 308.869 451.304 308.906 451.114 308.906H451.114Z" fill="#4E9F3D"/>
<path d="M481.757 308.906C481.566 308.906 481.378 308.869 481.202 308.796C481.026 308.722 480.866 308.615 480.731 308.479C480.596 308.344 480.489 308.183 480.416 308.006C480.344 307.829 480.306 307.64 480.306 307.448V285.983C480.307 285.597 480.46 285.227 480.732 284.954C481.004 284.682 481.372 284.528 481.757 284.528C482.141 284.528 482.509 284.682 482.781 284.954C483.053 285.227 483.206 285.597 483.207 285.983V307.448C483.207 307.64 483.17 307.829 483.097 308.006C483.024 308.183 482.917 308.344 482.782 308.479C482.648 308.615 482.488 308.722 482.312 308.795C482.136 308.869 481.947 308.906 481.757 308.906H481.757Z" fill="#4E9F3D"/>
</g>
<defs>
<clipPath id="clip0_720_56">
<rect width="599" height="443.45" fill="white" transform="translate(0 0.938965)"/>
</clipPath>
</defs>
</svg>
